inDegrees=no
num_controls=7
num_derivatives=13
num_iterations=118
num_multipliers=7
num_parameters=0
num_slacks=7
num_states=26
objective=5.820011
objective_accelerations=0.860664
objective_balance=0.066988
objective_effort=0.343132
objective_height=4.503589
objective_ligament=0.045638
solver_duration=1321.673868
status=Solve_Succeeded
success=true
DataType=double
version=3
OpenSimVersion=4.4-2022-07-23-0e9fedc
endheader
time	/jointset/ground_pelvis/pelvis_tilt/value	/jointset/ground_pelvis/pelvis_tx/value	/jointset/ground_pelvis/pelvis_ty/value	/jointset/hip_l/hip_flexion_l/value	/jointset/hip_l/hip_adduction_l/value	/jointset/hip_l/hip_rotation_l/value	/jointset/back/lumbar_extension/value	/jointset/patellofemoral_l/patellar_flexion_l/value	/jointset/knee_l/knee_flexion_l/value	/jointset/knee_l/knee_adduction_l/value	/jointset/knee_l/knee_rotation_l/value	/jointset/ankle_l/ankle_angle_l/value	/jointset/subtalar_l/subtalar_angle_l/value	/jointset/ground_pelvis/pelvis_tilt/speed	/jointset/ground_pelvis/pelvis_tx/speed	/jointset/ground_pelvis/pelvis_ty/speed	/jointset/hip_l/hip_flexion_l/speed	/jointset/hip_l/hip_adduction_l/speed	/jointset/hip_l/hip_rotation_l/speed	/jointset/back/lumbar_extension/speed	/jointset/patellofemoral_l/patellar_flexion_l/speed	/jointset/knee_l/knee_flexion_l/speed	/jointset/knee_l/knee_adduction_l/speed	/jointset/knee_l/knee_rotation_l/speed	/jointset/ankle_l/ankle_angle_l/speed	/jointset/subtalar_l/subtalar_angle_l/speed	/forceset/tau_hip_flexion_l	/forceset/tau_hip_adduction_l	/forceset/tau_hip_rotation_l	/forceset/tau_knee_flexion_l	/forceset/tau_ankle_angle_l	/forceset/tau_subtalar_angle_l	/forceset/tau_lumbar_extension	lambda_cid13_p0	lambda_cid13_p1	lambda_cid13_p2	lambda_cid13_p3	lambda_cid13_p4	lambda_cid13_p5	lambda_cid14_p0	/jointset/ground_pelvis/pelvis_tilt/accel	/jointset/ground_pelvis/pelvis_tx/accel	/jointset/ground_pelvis/pelvis_ty/accel	/jointset/hip_l/hip_flexion_l/accel	/jointset/hip_l/hip_adduction_l/accel	/jointset/hip_l/hip_rotation_l/accel	/jointset/back/lumbar_extension/accel	/jointset/patellofemoral_l/patellar_flexion_l/accel	/jointset/knee_l/knee_flexion_l/accel	/jointset/knee_l/knee_adduction_l/accel	/jointset/knee_l/knee_rotation_l/accel	/jointset/ankle_l/ankle_angle_l/accel	/jointset/subtalar_l/subtalar_angle_l/accel	gamma_cid13_p0	gamma_cid13_p1	gamma_cid13_p2	gamma_cid13_p3	gamma_cid13_p4	gamma_cid13_p5	gamma_cid14_p0
0	-0.0395546519587212	0.06892670765131123	0.8959519580799417	0.1955292361009247	-0.3219949778925887	-0.483635481370497	-0.137903700187828	0.07015350928387577	0.07015350928391206	-0.1745328437406899	-0.1180897428915338	-0.06701017130107029	0.003835196344784465	0	0	0	0	0	0	0	0	0	0	0	0	0	0.1187539340835578	-0.09547324352699556	-0.03052770641161003	-0.2349392628970671	0.1812745423241571	-0.02259470605870573	-0.06443222380169358	22.0530768765094	2.472277228194187	3.244096842162528	11.25663861368314	-512.7455314432923	-76.86974422086865	-39.92129864833719	-5.915936461070366	-2.476040142837409	-1.142078170807118	15.04582457196413	-2.175907046808335	3.480458403847366	-3.074073919187533	10.42820461789663	10.42820461789651	0.6289126054174329	-0.9123512107436863	1.482678109742094	-1.583800299412051	-2.932475059943319e-09	1.387586085182204e-07	1.09671550700674e-07	-8.102309718227029e-09	5.320284747977965e-08	1.790604021622007e-08	-3.81600293457247e-09
0.01	-0.0398389348003966	0.06880535835201147	0.8958964608424951	0.1962578320710114	-0.3221021737318627	-0.483460746193494	-0.1380641433273074	0.07065999302571503	0.07065999302599996	-0.1745050907797782	-0.1181288299831694	-0.06693933896867074	0.00375592560109325	-0.05664455747839758	-0.02407255348189535	-0.01106118773248818	0.1450159311929577	-0.02132393769127766	0.03481522724674754	-0.03179643338397589	0.100843542214212	0.1008435422142046	0.005558265042769349	-0.007741283698813559	0.01421657084013305	-0.01570103656869223	0.116986960064181	-0.1012275051716071	-0.03060841806892519	-0.2364202911054481	0.1827054945505579	-0.01712373646123962	-0.06235851653248747	22.71186229990518	0.1973170444171882	3.359571379788806	8.967765919138371	-513.747217145655	-81.39028593220517	-39.93169541462763	-5.506926371908564	-2.343268612319029	-1.082389470500355	14.12397619967438	-2.093380688758279	3.462271766969517	-3.188598872454666	9.844448861539663	9.844448861539437	0.5204674548005916	-0.6935865680269285	1.398667671863953	-1.540323550023424	-5.757924728556264e-08	1.568917668790232e-07	2.029402657943578e-07	3.75930692797814e-08	-2.410699742674065e-07	-5.190399391043356e-08	-1.37173587056491e-08
0.02	-0.04068330541295605	0.06844920238560706	0.8957315016485172	0.1984154871143644	-0.3224191576596983	-0.4829418153675163	-0.1385337849654924	0.07216131615745983	0.07216131615747093	-0.1744215183672014	-0.1182430438352245	-0.06672483670771277	0.003524230848829524	-0.1120175541839886	-0.04696133342093036	-0.02189239130627315	0.2858118146546839	-0.0419576177212857	0.06883912976874644	-0.06183969974614788	0.1989678779626376	0.1989678779626236	0.01116389012918634	-0.01502535214068054	0.02873398570885396	-0.0304848017144456	0.115219986043558	-0.1069817668166551	-0.0306891297280347	-0.2379013193149357	0.184136446776174	-0.01165276686465172	-0.06028480926334834	23.43647165633563	-2.091668073861247	3.480138456805247	6.555880870825569	-513.7592099522952	-85.74859212923515	-39.96219964409334	-5.661624306509862	-2.239285434264515	-1.096081339066522	14.20181502571735	-2.037855514554986	3.322193458897635	-2.723440514827058	9.884363324739205	9.884363324739224	0.6383846141457069	-0.8209081593542341	1.542846915460427	-1.400346014824452	-1.12226019511182e-07	1.750249252398261e-07	2.962089808880416e-07	8.328844827778982e-08	-5.353427960145928e-07	-1.217140280370872e-07	-2.361871447672573e-08
0.03	-0.04207480060375548	0.06786871932565257	0.8954589865534647	0.2019619144533575	-0.3229388547886925	-0.4820871807044035	-0.1392946111854587	0.07463084457851397	0.07463084457839486	-0.1742814695961566	-0.1184287671860474	-0.06636518876848618	0.003148628797414911	-0.1659730955711063	-0.06907052920226377	-0.03260211161234429	0.422841686939165	-0.06185460344816873	0.1019393602045126	-0.09005861433736692	0.2944758013029632	0.2944758013029656	0.01683584592849148	-0.02207559188383084	0.04307044027770742	-0.04456617363663966	0.1076403590168296	-0.09902562717899131	-0.02916358275105703	-0.2278542703322022	0.1725972439527525	-0.01218222707058211	-0.05430280661948071	19.77180465193442	-1.445318725944037	3.634383920224694	8.680207941735851	-513.2368619825305	-83.63015686087984	-40.01148474366698	-5.216272714470361	-2.187007400447858	-1.057248220166441	13.3587579162002	-1.946583910620661	3.281631156315181	-2.831077445535243	9.31471086158688	9.314710861589511	0.5301598056008378	-0.6404849454408932	1.360269363791695	-1.401678466351803	-1.342249480768905e-07	2.121838004576464e-07	3.439189256454017e-07	1.065753930604451e-07	-6.946479945879885e-07	-1.368239047888499e-07	-2.506728970122747e-08
